# xmcd CD database file
#
# Track frame offsets:
#	150
#	20987
#	40202
#	63265
#	82237
#	110127
#	132100
#	153085
#	176752
#	196112
#	219925
#	236697
#	250450
#	264298
#	278550
#	298512
#	314740
#
# Disc length: 4452 seconds
#
# Revision: 0
# Processed by: cddbd v1.5.1PL0 Copyright (c) Steve Scherf et al.
# Submitted via: CDex 1.51
#
DISCID=fb116211
DTITLE=Kenny G - Paradise
DYEAR=2002
DGENRE=Jazz
TTITLE0=Brazil
TTITLE1=Paradise
TTITLE2=Malibu Dreams
TTITLE3=One More Time
TTITLE4=Spanish Nights
TTITLE5=Seaside Jam
TTITLE6=Ocean Breeze
TTITLE7=Falling in the Moonlight
TTITLE8=All the Way
TTITLE9=Midnight Magic
TTITLE10=Peace
TTITLE11=What a wonderful world
TTITLE12=Winter wonderland
TTITLE13=Let it snow
TTITLE14=My heart will go on
TTITLE15=There you'll be
TTITLE16=Cheng fu
EXTD=YEAR: 2002
EXTT0=
EXTT1=
EXTT2=
EXTT3=
EXTT4=
EXTT5=
EXTT6=
EXTT7=
EXTT8=
EXTT9=
EXTT10=
EXTT11=
EXTT12=
EXTT13=
EXTT14=
EXTT15=
EXTT16=
PLAYORDER=
